<svg xmlns="http://www.w3.org/2000/svg" width="273.39" height="222.18" viewBox="0 0 273.39 222.18"><g data-name="レイヤー 2"><path d="M273.39 26.3a112 112 0 0 1-32.22 8.83 56.22 56.22 0 0 0 24.67-31 112.12 112.12 0 0 1-35.62 13.61 56.15 56.15 0 0 0-95.58 51.16A159.28 159.28 0 0 1 19 10.27a56.16 56.16 0 0 0 17.39 74.88 55.73 55.73 0 0 1-25.4-7v.71a56.12 56.12 0 0 0 45 55 56.08 56.08 0 0 1-25.33 1A56.16 56.16 0 0 0 83 173.75a112.51 112.51 0 0 1-69.66 24A113.66 113.66 0 0 1 0 197a158.78 158.78 0 0 0 86 25.2c103.17 0 159.58-85.47 159.58-159.59q0-3.65-.16-7.25a114 114 0 0 0 27.97-29.06z" fill="#fff" data-name="Layer 1"/></g></svg>