<svg xmlns="http://www.w3.org/2000/svg" width="104.33" height="99.41" viewBox="0 0 104.33 99.41"><path d="M104.33 42.33C104.33 19 80.93 0 52.16 0S0 19 0 42.33C0 63.26 18.56 80.78 43.63 84.1c1.69.36 4 1.12 4.59 2.57a10.6 10.6 0 0 1 .17 4.72l-.74 4.46c-.23 1.32-1 5.16 4.51 2.81S82.21 81 93.15 68.38c7.56-8.29 11.18-16.71 11.18-26.05zM33.76 54.79a1 1 0 0 1-1 1H18.13a1 1 0 0 1-.7-.28 1 1 0 0 1-.29-.7V32.07a1 1 0 0 1 1-1h3.66a1 1 0 0 1 1 1v18h10a1 1 0 0 1 1 1zm8.82 0a1 1 0 0 1-1 1h-3.67a1 1 0 0 1-1-1V32.07a1 1 0 0 1 1-1h3.66a1 1 0 0 1 1 1zm25.19 0a1 1 0 0 1-1 1h-3.68a1.09 1.09 0 0 1-.26 0h-.18a.88.88 0 0 1-.26-.25L51.83 41.3v13.5a1 1 0 0 1-1 1h-3.68a1 1 0 0 1-1-1V32.07a1 1 0 0 1 1-1H51.26l.06.06.08.1 10.68 14.34v-13.5a1 1 0 0 1 1-1h3.66a1 1 0 0 1 1 1zM88 35.73a1 1 0 0 1-1 1H77v3.85h10a1 1 0 0 1 1 1v3.66a1 1 0 0 1-1 1H77v3.84h10a1 1 0 0 1 1 1v3.65a1 1 0 0 1-1 1H72.34a1 1 0 0 1-.7-.28 1 1 0 0 1-.29-.7V32.07a1 1 0 0 1 .29-.7 1 1 0 0 1 .71-.29H87a1 1 0 0 1 1 1z" fill="#fff" data-name="レイヤー 2"/></svg>